<svg width="16" height="16" viewBox="0 0 16 16" fill="none" xmlns="http://www.w3.org/2000/svg">
    <path fill-rule="evenodd" clip-rule="evenodd"
          d="M4.8 1.59998C4.37565 1.59998 3.96868 1.76855 3.66863 2.0686C3.36857 2.36866 3.2 2.77563 3.2 3.19998V12.8C3.2 13.2243 3.36857 13.6313 3.66863 13.9313C3.96868 14.2314 4.37565 14.4 4.8 14.4H11.2C11.6243 14.4 12.0313 14.2314 12.3314 13.9313C12.6314 13.6313 12.8 13.2243 12.8 12.8V5.93118C12.7999 5.50686 12.6313 5.09996 12.3312 4.79998L9.6 2.06878C9.30001 1.7687 8.89311 1.60007 8.4688 1.59998H4.8ZM8.8 6.39998C8.8 6.1878 8.71571 5.98432 8.56568 5.83429C8.41565 5.68426 8.21217 5.59998 8 5.59998C7.78782 5.59998 7.58434 5.68426 7.43431 5.83429C7.28428 5.98432 7.2 6.1878 7.2 6.39998V7.99998H5.6C5.38782 7.99998 5.18434 8.08426 5.03431 8.23429C4.88428 8.38432 4.8 8.5878 4.8 8.79998C4.8 9.01215 4.88428 9.21563 5.03431 9.36566C5.18434 9.51569 5.38782 9.59998 5.6 9.59998H7.2V11.2C7.2 11.4121 7.28428 11.6156 7.43431 11.7657C7.58434 11.9157 7.78782 12 8 12C8.21217 12 8.41565 11.9157 8.56568 11.7657C8.71571 11.6156 8.8 11.4121 8.8 11.2V9.59998H10.4C10.6122 9.59998 10.8157 9.51569 10.9657 9.36566C11.1157 9.21563 11.2 9.01215 11.2 8.79998C11.2 8.5878 11.1157 8.38432 10.9657 8.23429C10.8157 8.08426 10.6122 7.99998 10.4 7.99998H8.8V6.39998Z"
          fill="white"/>
</svg>
